<svg width="54" height="51" viewBox="0 0 54 51" fill="none" xmlns="http://www.w3.org/2000/svg">
<path d="M46.3145 29.4965L44.8497 31.3295C43.8707 32.5546 38.9872 38.8539 38.9872 42.5658C38.9872 46.8374 42.2741 50.3125 46.3144 50.3125C50.3547 50.3125 53.6418 46.8374 53.6418 42.5658C53.6418 38.8539 48.7582 32.5546 47.7791 31.3295L46.3145 29.4965ZM46.3145 46.5625C44.342 46.5625 42.7373 44.7695 42.7373 42.5658C42.7373 41.1992 44.5519 38.1264 46.3151 35.6283C48.078 38.1244 49.8919 41.1958 49.8919 42.5658C49.8919 44.7695 48.287 46.5625 46.3145 46.5625Z" fill="#B2B2B2" stroke="#B2B2B2" stroke-width="0.125"/>
<path d="M12.3753 1.03422L9.26559 9.57812L1.52641 6.39121L0.0985947 9.85937L7.98191 13.1055L1.15234 31.8679C0.643894 33.2699 0.712311 34.8163 1.34258 36.1679C1.97286 37.5195 3.11352 38.5659 4.51434 39.0776L26.1611 46.9564C26.8552 47.209 27.5923 47.3225 28.3303 47.2903C29.0683 47.2581 29.7927 47.0808 30.4622 46.7686C31.1317 46.4565 31.7332 46.0155 32.2322 45.4708C32.7313 44.9262 33.1182 44.2886 33.3708 43.5945L44.5938 12.7609L12.3753 1.03422ZM29.8479 42.3119C29.7637 42.5433 29.6348 42.7558 29.4684 42.9373C29.302 43.1189 29.1016 43.2659 28.8784 43.37C28.6552 43.474 28.4137 43.5331 28.1677 43.5439C27.9217 43.5546 27.676 43.5168 27.4446 43.4325L5.79731 35.5538C5.33002 35.3837 4.94943 35.035 4.73927 34.5843C4.52911 34.1336 4.50658 33.6179 4.67664 33.1506L6.61949 27.8125H35.125L29.8479 42.3119ZM7.98437 24.0625L11.4524 14.5339L15.7102 16.2871C15.8399 17.1228 16.2429 17.892 16.8561 18.4744C17.4694 19.0568 18.2584 19.4196 19.0997 19.506C19.941 19.5923 20.7872 19.3975 21.5061 18.9519C22.2249 18.5062 22.7758 17.835 23.0726 17.043C23.3694 16.2511 23.3954 15.3831 23.1465 14.5748C22.8976 13.7665 22.3879 13.0635 21.6971 12.5756C21.0062 12.0878 20.1732 11.8426 19.3282 11.8785C18.4832 11.9143 17.6739 12.2292 17.0269 12.7738L12.7361 11.007L14.6165 5.84078L39.7872 15.0021L36.4375 24.2054V24.0625H7.98437Z" fill="#B2B2B2" stroke="#B2B2B2" stroke-width="0.125"/>
</svg>
