<svg width="51" height="49" viewBox="0 0 51 49" fill="none" xmlns="http://www.w3.org/2000/svg">
<path opacity="0.5" d="M31.8805 2C29.2865 2 27.199 4.08755 23.024 8.26265L10.75 20.5365L28.4635 38.25L40.7372 25.976C44.9125 21.801 47 19.7135 47 17.1194C47 14.5253 44.9125 12.4378 40.7372 8.26265C36.5623 4.08755 34.4748 2 31.8805 2Z" fill="#B2B2B2" stroke="#B2B2B2" stroke-width="2.66667"/>
<path d="M28.4635 38.2502L10.75 20.5367L8.26265 23.024C4.08755 27.199 2 29.2867 2 31.8807C2 34.4747 4.08755 36.5625 8.26265 40.7375C12.4378 44.9125 14.5253 47.0002 17.1194 47.0002C19.7135 47.0002 21.801 44.9125 25.976 40.7375L28.4635 38.2502Z" fill="#B2B2B2" stroke="#B2B2B2" stroke-width="2.66667"/>
<g opacity="0.5">
<path d="M17.0816 47H17C17.0271 47.0008 17.0544 46.9997 17.0816 47Z" fill="#B2B2B2" stroke="#B2B2B2" stroke-width="2.66667"/>
<path d="M17.1572 47C19.1482 46.9845 20.8472 45.7345 23.4335 43.25H47C48.0355 43.25 48.875 44.0895 48.875 45.125C48.875 46.1605 48.0355 47 47 47H17.1572Z" fill="#B2B2B2" stroke="#B2B2B2" stroke-width="2.66667"/>
</g>
</svg>
