<svg width="64" height="64" viewBox="0 0 64 64" fill="none" xmlns="http://www.w3.org/2000/svg">
<g opacity="0.2">
<path d="M10 28H54V34C54 35.0609 53.5786 36.0783 52.8284 36.8284C52.0783 37.5786 51.0609 38 50 38H38.306C38.0195 38 37.7363 38.0616 37.4756 38.1805C37.2149 38.2995 36.9829 38.4731 36.7951 38.6896C36.6074 38.9061 36.4683 39.1604 36.3874 39.4352C36.3065 39.7101 36.2856 39.9992 36.3261 40.2828L38 52C38 53.5913 37.3679 55.1174 36.2426 56.2426C35.1174 57.3679 33.5913 58 32 58C30.4087 58 28.8826 57.3679 27.7574 56.2426C26.6321 55.1174 26 53.5913 26 52L27.6739 40.2828C27.7144 39.9992 27.6935 39.7101 27.6126 39.4352C27.5317 39.1604 27.3926 38.9061 27.2049 38.6896C27.0172 38.4731 26.7851 38.2995 26.5244 38.1806C26.2637 38.0616 25.9805 38 25.694 38H14C12.9391 38 11.9217 37.5786 11.1716 36.8284C10.4214 36.0783 10 35.0609 10 34V28Z" fill="#B2B2B2" stroke="#B2B2B2" stroke-width="0.25"/>
</g>
<path d="M54 6H18C15.3488 6.00301 12.807 7.05755 10.9323 8.93226C9.05755 10.807 8.00301 13.3488 8 16V34C8.00182 35.5907 8.63454 37.1158 9.75937 38.2406C10.8842 39.3655 12.4093 39.9982 14 40H25.694L24.0201 51.717C24.0067 51.8108 24 51.9053 24 52C24 54.1217 24.8429 56.1566 26.3431 57.6569C27.8434 59.1571 29.8783 60 32 60C34.1217 60 36.1566 59.1571 37.6569 57.6569C39.1571 56.1566 40 54.1217 40 52C40 51.9053 39.9933 51.8108 39.9799 51.717L38.306 40H50C51.5907 39.9982 53.1158 39.3655 54.2406 38.2406C55.3655 37.1158 55.9982 35.5907 56 34V8C56 7.46957 55.7893 6.96086 55.4142 6.58579C55.0391 6.21072 54.5304 6.00001 54 6ZM18 10H44V20C44 20.5304 44.2107 21.0391 44.5858 21.4142C44.9609 21.7893 45.4696 22 46 22C46.5304 22 47.0391 21.7893 47.4142 21.4142C47.7893 21.0391 48 20.5304 48 20V10H52V26H12V16C12.0018 14.4093 12.6345 12.8842 13.7594 11.7594C14.8842 10.6345 16.4093 10.0018 18 10ZM50 36H38.306C37.7329 36 37.1666 36.1232 36.6452 36.3611C36.1239 36.5991 35.6597 36.9463 35.2843 37.3792C34.9088 37.8121 34.6307 38.3207 34.4689 38.8705C34.3071 39.4202 34.2653 39.9984 34.3463 40.5657L35.9979 52.1279C35.9647 53.1661 35.529 54.1507 34.7828 54.8733C34.0367 55.5959 33.0387 56 32 56C30.9613 56 29.9633 55.5959 29.2172 54.8733C28.471 54.1507 28.0353 53.1661 28.0021 52.1279L29.6537 40.5659C29.7348 39.9986 29.693 39.4204 29.5312 38.8706C29.3694 38.3209 29.0913 37.8123 28.7158 37.3793C28.3404 36.9463 27.8762 36.5991 27.3549 36.3611C26.8335 36.1232 26.2671 36 25.694 36H14C13.4698 35.9994 12.9614 35.7885 12.5865 35.4135C12.2115 35.0386 12.0006 34.5302 12 34V30H52V34C51.9994 34.5302 51.7885 35.0386 51.4135 35.4135C51.0386 35.7885 50.5302 35.9994 50 36Z" fill="#B2B2B2" stroke="#B2B2B2" stroke-width="0.25"/>
</svg>
